<?xml version="1.0" standalone="no"?>
<!DOCTYPE svg PUBLIC "-//W3C//DTD SVG 20010904//EN"
 "http://www.w3.org/TR/2001/REC-SVG-20010904/DTD/svg10.dtd">
<svg version="1.0" xmlns="http://www.w3.org/2000/svg"
 width="350.000000pt" height="350.000000pt" viewBox="0 0 350.000000 350.000000"
 preserveAspectRatio="xMidYMid meet">
<metadata>
Created by potrace 1.14, written by Peter Selinger 2001-2017
</metadata>
<g transform="translate(0.000000,350.000000) scale(0.100000,-0.100000)"
fill="#000000" stroke="none">
<path d="M1526 3482 c-4 -4 -158 -14 -233 -16 -29 -1 -53 -3 -53 -6 0 -3 -15
-6 -32 -7 -18 0 -51 -4 -73 -7 -22 -4 -53 -9 -70 -11 -16 -2 -43 -6 -60 -10
-16 -3 -46 -9 -65 -12 -19 -3 -40 -9 -46 -14 -6 -5 -19 -7 -28 -3 -10 4 -16 1
-16 -7 0 -7 -3 -10 -6 -6 -7 6 -114 -29 -128 -43 -6 -6 -16 -10 -23 -10 -16 0
-29 -10 -89 -67 -47 -45 -58 -76 -54 -153 1 -25 3 -62 3 -82 1 -21 4 -38 7
-38 3 0 6 -28 6 -63 1 -34 4 -82 8 -107 3 -25 9 -67 12 -95 3 -27 10 -51 15
-53 5 -2 5 -11 -1 -21 -5 -10 -7 -21 -4 -23 7 -8 13 -46 18 -113 3 -33 8 -78
12 -100 3 -22 7 -58 9 -80 1 -22 4 -41 5 -42 1 -2 3 -15 4 -30 2 -16 7 -59 12
-98 5 -38 8 -76 7 -82 0 -7 2 -13 6 -13 3 0 7 -19 7 -43 1 -23 5 -69 9 -102 4
-33 8 -75 9 -92 0 -18 3 -33 6 -33 3 0 6 -21 6 -48 2 -44 10 -117 14 -117 1 0
3 -18 5 -40 1 -22 4 -40 5 -40 1 0 4 -25 5 -55 2 -30 4 -55 5 -55 3 0 10 -50
11 -83 0 -17 5 -34 9 -37 5 -3 5 -18 0 -34 -4 -16 -7 -31 -5 -33 7 -6 18 -72
16 -97 0 -12 2 -28 5 -33 4 -6 8 -29 10 -52 2 -22 6 -59 9 -81 3 -22 8 -58 10
-80 2 -22 7 -62 10 -90 8 -62 16 -143 18 -172 0 -13 3 -23 7 -23 3 0 6 -20 8
-44 1 -24 5 -59 8 -77 3 -19 7 -61 10 -94 2 -33 6 -65 8 -71 3 -7 -6 -21 -20
-33 -13 -11 -24 -18 -24 -14 0 4 -11 -8 -24 -25 -22 -31 -26 -82 -5 -82 5 0 9
-7 9 -15 0 -8 9 -15 20 -15 11 0 20 -4 20 -9 0 -15 155 -72 230 -85 14 -3 25
-5 25 -6 0 -7 169 -31 235 -34 19 0 38 -5 42 -11 5 -6 8 -5 8 3 0 10 5 9 23
-2 16 -11 57 -14 160 -14 119 -1 137 2 137 15 0 9 3 14 6 10 3 -3 18 -1 33 4
14 6 58 13 96 15 84 5 96 7 113 17 6 5 12 4 12 -2 0 -7 8 -7 26 -1 14 6 36 10
49 10 13 0 26 6 28 13 4 9 6 9 6 0 1 -9 8 -10 24 -5 12 5 29 8 37 7 8 -1 20 1
25 4 6 3 19 6 30 7 34 3 99 15 120 22 11 3 23 7 28 8 4 1 8 2 10 3 1 2 12 4
24 7 43 8 48 9 53 14 10 10 50 30 60 30 15 0 88 55 111 84 11 14 18 26 14 26
-3 0 -1 8 4 18 12 22 20 59 26 127 3 28 8 68 11 90 3 22 6 61 7 87 1 27 4 48
7 48 3 0 6 15 7 32 1 18 4 56 8 83 3 28 8 70 9 95 2 25 7 53 11 62 4 9 4 21 1
27 -4 5 -3 12 2 15 4 3 8 28 8 55 -1 28 1 51 5 51 3 0 5 10 5 23 1 20 8 91 19
192 5 42 14 133 21 200 3 22 7 60 9 85 3 25 8 63 10 85 10 93 13 114 19 124 4
6 2 11 -4 11 -6 0 -8 5 -3 13 9 14 8 13 17 93 4 32 9 67 12 76 3 10 7 37 9 60
2 24 6 54 9 68 2 14 7 57 11 95 3 39 8 88 11 110 3 22 7 53 8 68 2 15 6 31 10
34 3 3 1 12 -5 20 -6 7 -7 13 -2 13 5 0 10 6 10 13 0 13 13 146 18 187 12 90
15 122 20 180 5 63 8 84 21 180 3 25 7 59 8 75 0 17 5 36 9 43 5 6 4 12 0 12
-5 0 -8 16 -8 36 1 20 -4 42 -11 49 -7 7 -11 14 -9 16 2 2 -17 23 -41 47 -24
23 -44 40 -44 37 0 -3 -20 6 -45 20 -25 13 -49 24 -53 23 -4 -1 -20 5 -37 12
-16 7 -34 14 -40 15 -5 1 -12 3 -15 5 -5 2 -39 9 -67 12 -7 1 -13 4 -13 8 0 3
-10 6 -22 7 -22 1 -52 5 -128 19 -19 3 -54 7 -77 8 -24 0 -43 3 -43 6 0 3 -19
6 -42 7 -24 1 -77 5 -118 8 -82 6 -619 13 -624 7z"/>
</g>
</svg>
